<svg xmlns="http://www.w3.org/2000/svg" width="120" height="120" viewBox="0 0 31.75 31.75" class="icon">
  <path d="M24.51 15.19c0-.6-.49-1.09-1.08-1.09h-.21l.52-.52-.66-.66-1.18 1.18h-1.6a3.85 3.85 0 0 0-.33-.78l1.14-1.13h1.67v-.93h-.74l.15-.15a1.09 1.09 0 0 0-1.54-1.53l-.15.14v-.74h-.93v1.67l-1.13 1.14c-.25-.13-.5-.24-.78-.32v-1.6l1.18-1.19-.66-.66-.52.53v-.21a1.09 1.09 0 0 0-2.17 0v.2l-.53-.52-.65.66 1.18 1.18v1.6c-.27.09-.53.2-.78.33l-1.14-1.14V8.98h-.93v.74l-.14-.14a1.09 1.09 0 0 0-1.54 1.53l.15.15h-.74v.93h1.67l1.14 1.13c-.14.25-.25.51-.33.78h-1.6l-1.18-1.18-.66.66.52.52h-.2a1.09 1.09 0 0 0 0 2.17h.2l-.52.53.66.65 1.18-1.18h1.6c.08.28.2.54.33.78l-1.14 1.14h-1.67v.93h.74l-.15.15a1.09 1.09 0 0 0 1.54 1.53l.14-.15v.74h.93v-1.67l1.14-1.13c.25.13.5.24.78.32v1.6L14.3 21.7l.65.65.53-.52v.21a1.09 1.09 0 0 0 2.17 0v-.21l.52.52.66-.65-1.18-1.19v-1.6c.27-.08.53-.19.78-.32l1.13 1.13v1.67h.93v-.74l.15.15a1.08 1.08 0 0 0 1.54 0c.42-.42.42-1.11 0-1.53l-.15-.15h.74v-.93H21.1l-1.14-1.14c.14-.24.24-.5.32-.78h1.61l1.18 1.18.66-.65-.52-.53h.2c.6 0 1.1-.48 1.1-1.08zm-7.94 1.08a1.09 1.09 0 1 1 0-2.17 1.09 1.09 0 0 1 0 2.17z"/>
</svg>
