<?xml-stylesheet type="text/css" href="../style.css" ?>
<svg xmlns="http://www.w3.org/2000/svg" width="120" height="120" viewBox="0 0 31.75 31.75" class="icon">
  <g transform="matrix(.03946 0 0 .03946 6.61 7.04)">
    <circle cx="373.33" cy="96" r="53.33"/>
    <path d="M170.66 160V85.33h32a10.7 10.7 0 0 0 10.67-10.67c0-2.27-.72-4.52-2.14-6.4l-64-85.32a10.66 10.66 0 0 0-17.06 0l-64 85.33a10.68 10.68 0 0 0 8.53 17.06h32V160c0 5.9 4.77 10.67 10.67 10.67H160c5.9 0 10.66-4.78 10.66-10.67zM378.33 172.3l-.08-.02c-6.21-1.94-19.71-2.8-30.54 1.6l-88.32 39.45h-78.04c-17.64 0-32 14.35-32 32s14.36 32 32 32h85.36c4.93 0 9.87-1.17 13.9-3.17l39.03-17.36-12.91 50.92-149.92-9a37.87 37.87 0 0 0-31.58 14.35l-74.7 96a37.39 37.39 0 0 0 6.55 52.4 37.06 37.06 0 0 0 22.9 7.86 37.06 37.06 0 0 0 29.48-14.4l62.64-80.5c161.86 9.59 162.5 9.59 162.92 9.59 16.23 0 30.58-11.9 34.94-28.94l34.12-134.4c5.2-20.43-6.35-42.13-25.75-48.38z"/>
  </g>
</svg>
