<?xml-stylesheet type="text/css" href="../style.css" ?>
<svg xmlns="http://www.w3.org/2000/svg" width="120" height="120" viewBox="0 0 31.75 31.75" class="icon">
  <path d="M15.88 21.77a.86.86 0 0 1-1.4.66l-4.7-3.9h-2.5a.86.86 0 0 1-.85-.85v-3.42c0-.47.38-.86.85-.86h2.5l4.7-3.88a.86.86 0 0 1 1.4.66zm3.3-1.35a.86.86 0 0 1-.67-.25l-.11-.11a.86.86 0 0 1-.09-1.12 4.95 4.95 0 0 0-.13-6.11.86.86 0 0 1 .06-1.15l.11-.11c.18-.18.4-.27.65-.25.25 0 .47.12.63.3a6.82 6.82 0 0 1 .18 8.45.86.86 0 0 1-.63.35zm3.55 2.66a.86.86 0 0 1-1.27.05l-.1-.11a.86.86 0 0 1-.06-1.16 9.16 9.16 0 0 0-.15-11.95.86.86 0 0 1 .03-1.18l.12-.1a.86.86 0 0 1 1.25.04 11 11 0 0 1 .18 14.4z"/>
</svg>
