<?xml-stylesheet type="text/css" href="../style.css" ?>
<svg xmlns="http://www.w3.org/2000/svg" width="120" height="120" viewBox="0 0 31.75 31.75" class="icon">
  <g style="line-height:1.25;-inkscape-font-specification:'Yu Gothic UI'">
    <path stroke-width=".26" d="M25.54 12.04c-.52 0-.98.12-1.38.35-.4.22-.71.55-.93.97-.22.42-.33.9-.33 1.45v2.13c0 .55.11 1.04.33 1.46.22.41.53.74.93.97.4.23.86.34 1.38.34.53 0 .99-.11 1.39-.34.4-.23.7-.56.92-.97.22-.42.33-.9.33-1.46v-2.13c0-.55-.1-1.03-.33-1.45a2.31 2.31 0 0 0-.92-.97c-.4-.23-.86-.35-1.39-.35zm-19.2.08l-2.77 7.51H4.7l.57-1.65H8.3l.57 1.65H10l-2.77-7.51h-.9zm4.56 0v4.8c0 .58.1 1.09.31 1.5.21.42.51.74.9.96.4.22.87.33 1.43.33.56 0 1.03-.1 1.43-.33.4-.22.7-.54.9-.95.21-.42.32-.93.32-1.52v-4.8h-1.06v4.84c0 .55-.14.97-.42 1.27-.27.3-.66.45-1.17.45-.5 0-.9-.15-1.17-.45-.27-.3-.41-.72-.41-1.27v-4.83H10.9zm6.02 0v1h2.12v6.51h1.06v-6.5h2.12v-1.01h-5.3zm8.62.96c.31 0 .59.07.82.21.24.14.42.34.55.6.13.25.2.55.2.88v2.2c0 .34-.07.64-.2.9a1.4 1.4 0 0 1-.55.6c-.23.13-.5.2-.82.2a1.6 1.6 0 0 1-.82-.2 1.45 1.45 0 0 1-.55-.6 2 2 0 0 1-.19-.9v-2.2c0-.33.07-.63.2-.88.13-.26.3-.46.54-.6.24-.14.51-.21.82-.21zm-18.75.49l1.17 3.41H5.6l1.18-3.41z" aria-label="AUTO" font-family="Bahnschrift" font-size="10.58" font-weight="400" letter-spacing="0" style="-inkscape-font-specification:Bahnschrift" word-spacing="0"/>
  </g>
</svg>
