<?xml version="1.0" encoding="UTF-8" standalone="no"?>
<!-- Created with Inkscape (http://www.inkscape.org/) -->

<svg
   xmlns:dc="http://purl.org/dc/elements/1.1/"
   xmlns:cc="http://creativecommons.org/ns#"
   xmlns:rdf="http://www.w3.org/1999/02/22-rdf-syntax-ns#"
   xmlns:svg="http://www.w3.org/2000/svg"
   xmlns="http://www.w3.org/2000/svg"
   xmlns:sodipodi="http://sodipodi.sourceforge.net/DTD/sodipodi-0.dtd"
   xmlns:inkscape="http://www.inkscape.org/namespaces/inkscape"
   width="120"
   height="120"
   viewBox="0 0 31.749999 31.750001"
   version="1.1"
   id="svg1041"
   sodipodi:docname="aux-lead.svg"
   inkscape:version="0.92.2 (5c3e80d, 2017-08-06)">
  <defs
     id="defs1035" />
  <sodipodi:namedview
     id="base"
     pagecolor="#ffffff"
     bordercolor="#666666"
     borderopacity="1.0"
     inkscape:pageopacity="0.0"
     inkscape:pageshadow="2"
     inkscape:zoom="10.24"
     inkscape:cx="73.323236"
     inkscape:cy="56.069874"
     inkscape:document-units="px"
     inkscape:current-layer="text6285"
     showgrid="false"
     units="px"
     inkscape:snap-page="true"
     inkscape:window-width="1916"
     inkscape:window-height="1986"
     inkscape:window-x="-14"
     inkscape:window-y="0"
     inkscape:window-maximized="0"
     inkscape:snap-object-midpoints="true"
     inkscape:snap-nodes="true"
     inkscape:snap-center="true"
     inkscape:snap-others="true" />
  <metadata
     id="metadata1038">
    <rdf:RDF>
      <cc:Work
         rdf:about="">
        <dc:format>image/svg+xml</dc:format>
        <dc:type
           rdf:resource="http://purl.org/dc/dcmitype/StillImage" />
        <dc:title></dc:title>
      </cc:Work>
    </rdf:RDF>
  </metadata>
  <g
     inkscape:label="Layer 1"
     inkscape:groupmode="layer"
     id="layer1"
     transform="translate(0,-265.24998)">
    <g
       aria-label="AUTO"
       style="font-style:normal;font-variant:normal;font-weight:normal;font-stretch:normal;font-size:10.58333302px;line-height:1.25;font-family:'Yu Gothic UI';-inkscape-font-specification:'Yu Gothic UI';letter-spacing:0px;word-spacing:0px;fill:#000000;fill-opacity:1;stroke:none;stroke-width:0.26458332"
       id="text6285"
       transform="translate(-0.48059285,-0.475515)">
      <path
         style="fill:#ffffff;stroke-width:0.02767955"
         d="m 8.1305928,289.65636 c -0.653,-0.26874 -1.108,-0.64125 -1.449,-1.18713 -0.129,-0.20531 -0.269,-0.5293 -0.331,-0.76372 -0.202001,-0.76187 -0.04,-1.68339 0.413999,-2.33173 0.317001,-0.45273 0.405001,-0.52055 2.267001,-1.73463 l 1.7170002,-1.12045 -0.04,-0.0796 c -0.02,-0.0439 -0.07,-0.17428 -0.09,-0.28993 -0.09,-0.37739 0.01,-0.78543 0.276,-1.10009 0.05,-0.066 0.281,-0.2409 0.501,-0.38865 l 0.4,-0.26866 -0.01,-0.13061 c -0.02,-0.20447 0.132,-0.92422 0.243,-1.12264 0.111,-0.1979 0.317,-0.45839 0.467,-0.59061 0.07,-0.058 0.995,-0.67276 2.066,-1.36626 1.699,-1.10087 1.959,-1.26049 2.05,-1.25773 0.202,0.007 0.259,0.0563 0.527,0.46192 l 0.252,0.38167 2.157,-1.39882 c 1.906,-1.23583 2.17,-1.39848 2.263,-1.39575 0.148,0.004 0.274,0.0639 0.355,0.16643 0.04,0.0496 0.08,0.0797 0.1,0.0687 0.01,-0.011 0.446,-0.42832 0.958,-0.92811 0.771,-0.75245 0.949,-0.91292 1.034,-0.93329 0.09,-0.0213 0.228,0.002 1.05,0.1766 0.937,0.19921 0.947,0.20182 1.024,0.28145 0.04,0.0442 0.09,0.12821 0.113,0.18675 0.03,0.10024 0.03,0.15687 -0.137,0.96126 -0.19,0.94506 -0.236,1.08425 -0.38,1.17084 -0.05,0.0291 -0.616,0.26214 -1.262,0.51792 -0.646,0.25578 -1.18,0.46846 -1.188,0.47262 0,0.004 0,0.0403 0.03,0.0802 0.02,0.0399 0.05,0.10211 0.06,0.1382 0.02,0.0839 -0.02,0.27377 -0.07,0.34211 -0.02,0.029 -1.005,0.67893 -2.181,1.44422 l -2.139,1.39144 0.236,0.36885 c 0.13,0.20287 0.245,0.39834 0.254,0.43437 0.03,0.0916 -0.02,0.27599 -0.08,0.35324 -0.03,0.0356 -0.93,0.63199 -2.001,1.32511 -1.336,0.86485 -2.006,1.28276 -2.138,1.332 -0.546,0.20488 -1.174,0.17271 -1.697,-0.087 l -0.175,-0.087 -0.398,0.25559 c -0.219,0.14058 -0.46,0.2748 -0.535,0.29826 -0.443,0.13874 -0.975,0.003 -1.29,-0.32841 l -0.121,-0.12764 -1.6710012,1.08389 c -1.721,1.11629 -1.891,1.24206 -2.092,1.54649 -0.316,0.47891 -0.417,1.11646 -0.26,1.64242 0.217,0.72664 0.767,1.23996 1.496,1.39551 0.428,0.0914 0.777,0.0625 1.181,-0.0983 0.08,-0.0304 1.9410012,-1.22229 4.1430012,-2.64856 2.483,-1.60803 4.081,-2.62617 4.208,-2.68 0.289,-0.12273 0.66,-0.20606 0.994,-0.22306 0.249,-0.0126 0.34,-0.003 0.706,0.0731 0.474,0.0987 0.699,0.19297 1.054,0.44015 0.395,0.27588 0.774,0.73814 0.966,1.17969 0.361,0.82838 0.304,1.81978 -0.148,2.56706 -0.367,0.60757 -0.396,0.6304 -2.573,2.04983 -1.874,1.22198 -2.033,1.31447 -2.199,1.27922 -0.107,-0.0226 -0.27,-0.1687 -0.308,-0.27603 -0.04,-0.11264 0,-0.32183 0.06,-0.4081 0.02,-0.029 0.911,-0.61957 1.971,-1.31237 2.088,-1.36425 2.09,-1.36584 2.321,-1.77045 0.539,-0.94627 0.209,-2.16331 -0.735,-2.7096 -0.144,-0.0837 -0.274,-0.13337 -0.491,-0.18918 -0.381,-0.0977 -0.631,-0.0994 -1.003,-0.007 l -0.284,0.0709 -4.021,2.6044 c -2.211,1.43242 -4.119,2.65 -4.24,2.70572 -0.275,0.12688 -0.6790012,0.22796 -1.0160012,0.25405 -0.219,0.017 -0.321,0.008 -0.667,-0.0576 -0.224,-0.0431 -0.437,-0.0896 -0.473,-0.10507 z m 12.5080002,-12.10937 1.92,-1.24705 -0.426,-0.65671 -0.426,-0.65672 -1.929,1.2523 -1.929,1.25232 0.421,0.64851 c 0.231,0.35668 0.427,0.64983 0.435,0.65146 0,0.001 0.878,-0.55823 1.934,-1.24411 z m 4.781,-3.58913 0.108,-0.50744 -0.523,-0.11132 -0.524,-0.11132 -0.88,0.85971 c -0.485,0.47284 -0.883,0.86854 -0.885,0.87935 0,0.011 0.05,0.11093 0.126,0.22251 l 0.13,0.20288 1.17,-0.46342 1.169,-0.46343 0.109,-0.50747 z"
         id="path4938"
         inkscape:connector-curvature="0"
         inkscape:export-xdpi="96"
         inkscape:export-ydpi="96" />
    </g>
  </g>
</svg>
