<svg xmlns="http://www.w3.org/2000/svg" width="120" height="120" viewBox="0 0 31.75 31.75" class="icon">
    <link href="../style.css" type="text/css" rel="stylesheet" xmlns="http://www.w3.org/1999/xhtml"/>
  <path d="M8.16 7.99v11.35h5.27l-.08.29-.12.3c-.2.51-.41 1.03-.41 2.07a.39.39 0 1 0 .77 0c0-.89.17-1.32.36-1.78.06-.16.17-.55.27-.88h2.65a6.1 6.1 0 0 1-.17.6c-.2.5-.41 1.03-.41 2.06a.39.39 0 1 0 .77 0c0-.89.17-1.32.36-1.78.1-.25.21-.56.29-.88h2.69l-.23.6c-.2.5-.4 1.03-.4 2.06a.39.39 0 1 0 .76 0c0-.89.18-1.32.36-1.78l.13-.33c.07-.2.12-.38.16-.55h3.8V7.99zm1.68 1.68H23.3v7.98h-2.02a4.78 4.78 0 0 0-.39-1.58l-.22-.62h.25a.39.39 0 0 0 .34-.56l-.77-1.55c-.13-.26-.56-.26-.69 0l-.77 1.55a.39.39 0 0 0 .34.56h.5c.08.36.2.64.3.91.14.35.28.74.33 1.3h-2.74a7.42 7.42 0 0 0-.56-2.21h.25a.39.39 0 0 0 .34-.56l-.77-1.55c-.13-.26-.56-.26-.7 0l-.76 1.55a.39.39 0 0 0 .34.56h.5c.08.36.2.64.3.91.1.27.2.79.27 1.3H14.3a7.22 7.22 0 0 0-.35-1.59c-.07-.2-.15-.4-.21-.63h.24c.14 0 .26-.06.33-.18a.39.39 0 0 0 .02-.37l-.77-1.55c-.13-.26-.56-.26-.7 0l-.77 1.55a.39.39 0 0 0 .35.55h.5c.08.37.19.65.3.92.14.36.28.72.33 1.3H9.84z"/>
</svg>
