<?xml-stylesheet type="text/css" href="../style.css" ?>
<svg xmlns="http://www.w3.org/2000/svg" width="120" height="120" viewBox="0 0 31.75 31.75" class="icon">
  <path d="M23 14.06a6.67 6.67 0 0 0-11.22-.02H9.92a3.3 3.3 0 0 0-3.3 3.3c0 1.06.86 1.93 1.93 1.93h.9a1.83 1.83 0 0 0 3.6 0h5.65a1.83 1.83 0 0 0 3.6 0h.9c1.07 0 1.94-.87 1.94-1.93v-.85c0-1.24-.93-2.27-2.13-2.43zm-1.81 4.9a.7.7 0 1 1-1.39 0 .7.7 0 0 1 1.39 0zm-9.24 0a.7.7 0 1 1-1.39 0 .7.7 0 0 1 1.39 0zm8.54-1.82c-.7 0-1.32.4-1.62 1h-5.99a1.83 1.83 0 0 0-3.25 0H8.55a.8.8 0 0 1-.8-.8c0-1.2.97-2.17 2.17-2.17h2.18c.2 0 .39-.11.49-.29a5.54 5.54 0 0 1 9.59 0c.1.18.29.29.5.29.73 0 1.32.6 1.32 1.32v.85a.8.8 0 0 1-.8.8h-1.08c-.3-.6-.92-1-1.63-1z"/>
  <path d="M17.15 16.67a1.2 1.2 0 0 1-1.8-.52 1.2 1.2 0 0 1-.01-.93.38.38 0 0 0-.7-.28c-.2.49-.19 1.02.02 1.5a1.95 1.95 0 0 0 2.91.86.38.38 0 0 0-.42-.63zM17.32 13.14c-.6-.24-1.29-.16-1.83.2a.38.38 0 0 0 .42.63 1.21 1.21 0 0 1 1.8 1.45.38.38 0 1 0 .71.28c.4-1-.09-2.15-1.1-2.56z"/>
</svg>
