<?xml-stylesheet type="text/css" href="../style.css" ?>
<svg xmlns="http://www.w3.org/2000/svg" width="120" height="120" viewBox="0 0 31.75 31.75" class="icon">
  <path d="M23 14.06a6.67 6.67 0 0 0-9.54-1.81 1.4 1.4 0 0 0-.79-.25h-2.1a.38.38 0 0 0 0 .76h2.1c.05 0 .1 0 .15.02-.4.37-.75.79-1.04 1.26H9.92a3.3 3.3 0 0 0-3.3 3.3c0 1.06.86 1.93 1.93 1.93h.9a1.83 1.83 0 0 0 3.6 0h5.65a1.83 1.83 0 0 0 3.6 0h.9c1.07 0 1.94-.87 1.94-1.93v-.85c0-1.24-.93-2.27-2.13-2.43zm-1.81 4.9a.7.7 0 1 1-1.39 0 .7.7 0 0 1 1.39 0zm-9.24 0a.7.7 0 1 1-1.39 0 .7.7 0 0 1 1.39 0zm8.54-1.82c-.7 0-1.32.4-1.62 1h-5.99a1.83 1.83 0 0 0-3.25 0H8.55a.8.8 0 0 1-.8-.8c0-1.2.97-2.17 2.17-2.17h2.18c.2 0 .39-.11.49-.29.22-.39.49-.75.8-1.06a1.4 1.4 0 0 0 1.35 1h3.07l-.6.61a.38.38 0 0 0 .53.53L19 14.72a.38.38 0 0 0 0-.54l-1.25-1.25a.38.38 0 0 0-.53.54l.6.6h-3.07a.65.65 0 0 1-.66-.66l-.01-.2a5.53 5.53 0 0 1 8.11 1.67c.1.18.29.29.5.29.73 0 1.32.6 1.32 1.32v.85a.8.8 0 0 1-.8.8h-1.08c-.3-.6-.92-1-1.63-1z"/>
</svg>
