<?xml-stylesheet type="text/css" href="../style.css" ?>
<svg xmlns="http://www.w3.org/2000/svg" width="120" height="120" viewBox="0 0 31.75 31.75" class="icon">
  <path d="M17.4 10.99a6.67 6.67 0 0 0-5.62 3.05H9.92a3.3 3.3 0 0 0-3.3 3.3c0 1.06.86 1.93 1.93 1.93h.9a1.83 1.83 0 0 0 3.6 0h5.65a1.83 1.83 0 0 0 3.6 0h.9c1.07 0 1.94-.87 1.94-1.93v-.85c0-1.24-.93-2.27-2.13-2.43H23a6.67 6.67 0 0 0-5.6-3.07zm-.27 1.13a5.54 5.54 0 0 1 5.05 2.76c.1.18.29.29.5.29.73 0 1.32.6 1.32 1.32v.85a.8.8 0 0 1-.8.8h-1.08a1.81 1.81 0 0 0-3.25 0h-5.99a1.83 1.83 0 0 0-3.25 0H8.55a.8.8 0 0 1-.8-.8c0-1.2.97-2.17 2.17-2.17h2.18c.2 0 .39-.11.49-.29a5.54 5.54 0 0 1 4.54-2.76zm-.83.81l-1.66 4.51h.68l.34-.99h1.82l.34.99h.69l-1.67-4.51h-.54zm.27.87l.7 2.05h-1.4l.7-2.05zm-5.28 4.54a.7.7 0 0 1 .66.62.7.7 0 1 1-1.39 0 .7.7 0 0 1 .73-.62zm9.24 0a.7.7 0 0 1 .66.62.7.7 0 1 1-1.39 0 .7.7 0 0 1 .73-.62z"/>
</svg>
