<?xml-stylesheet type="text/css" href="../style.css" ?>
<svg xmlns="http://www.w3.org/2000/svg" width="120" height="120" viewBox="0 0 31.75 31.75" class="icon">
  <path d="M20.09 13.31c1.52-.65 3.5-1.04 6.4-.96C25.1 10.58 23.86 9.3 23.12 8a18.96 18.96 0 0 0-4.7 3.66 3.97 3.97 0 0 0-1.71-.46c.2-1.63.83-3.53 2.37-6.02h-5c-.36 2.96-.13 5.01.37 6.62-.52.33-.95.77-1.27 1.28a18.44 18.44 0 0 1-4-4.18 8.14 8.14 0 0 1-2.53 3.45c2.38 1.77 4.28 2.61 5.93 3 .03.62.2 1.2.48 1.71-1.52.65-3.5 1.04-6.4.96 1.38 1.77 2.62 3.06 3.37 4.36a18.96 18.96 0 0 0 4.69-3.66c.52.27 1.1.44 1.72.46-.2 1.62-.83 3.53-2.37 6.02h5c.36-2.96.13-5.02-.37-6.63.51-.32.94-.76 1.27-1.28 1.3.95 2.64 2.3 4 4.19a8.13 8.13 0 0 1 2.53-3.45c-2.38-1.78-4.28-2.62-5.94-3-.02-.62-.2-1.2-.47-1.72zm-3.52 3.13a1.25 1.25 0 1 1 0-2.5 1.25 1.25 0 0 1 0 2.5z"/>
</svg>
