<?xml-stylesheet type="text/css" href="../style.css" ?>
<svg xmlns="http://www.w3.org/2000/svg" width="120" height="120" viewBox="0 0 31.75 31.75" class="icon">
  <path d="M18.92 13.94a9.97 9.97 0 0 1 4.27-.64c-.93-1.18-1.76-2.04-2.26-2.9-1.37.78-2.37 1.6-3.12 2.43-.35-.18-.73-.29-1.15-.3a9.87 9.87 0 0 1 1.58-4.02h-3.33c-.24 1.98-.09 3.35.25 4.42-.35.22-.63.51-.85.86a12.29 12.29 0 0 1-2.67-2.8 5.43 5.43 0 0 1-1.68 2.3 10.58 10.58 0 0 0 3.95 2c.02.42.13.8.32 1.15-1.01.43-2.33.7-4.27.64.93 1.18 1.75 2.04 2.25 2.9 1.37-.8 2.38-1.6 3.13-2.44.34.18.73.3 1.14.3a9.87 9.87 0 0 1-1.57 4.02h3.33c.24-1.97.08-3.34-.25-4.42.34-.21.63-.5.85-.85.87.64 1.75 1.53 2.67 2.79a5.42 5.42 0 0 1 1.68-2.3 10.59 10.59 0 0 0-3.96-2c-.01-.41-.13-.8-.31-1.14zm-2.35 2.08a.84.84 0 1 1 0-1.67.84.84 0 0 1 0 1.67z"/>
</svg>
