<?xml-stylesheet type="text/css" href="../style.css" ?>
<svg xmlns="http://www.w3.org/2000/svg" width="120" height="120" viewBox="0 0 31.75 31.75" class="icon">
  <path d="M25.74 11.46c-.12-.13-2.89-3.22-9.17-3.22-6.27 0-9.05 3.09-9.16 3.22a.39.39 0 0 0-.08.36l2.31 8.49a.39.39 0 0 0 .6.2c.02-.01.97-.71 3-1.14l-.11.3c-.2.51-.41 1.04-.41 2.08a.39.39 0 1 0 .77 0c0-.9.17-1.33.35-1.79.1-.23.19-.46.26-.74.72-.1 1.54-.17 2.47-.17h.25a5.8 5.8 0 0 1-.22.62c-.2.51-.41 1.04-.41 2.08a.39.39 0 1 0 .77 0c0-.9.17-1.33.36-1.79.1-.26.21-.54.29-.88a15 15 0 0 1 2.56.35l-.1.24c-.2.51-.4 1.04-.4 2.08a.39.39 0 1 0 .76 0c0-.9.18-1.33.36-1.79l.13-.33c1.33.4 1.97.87 1.98.88a.4.4 0 0 0 .36.06.39.39 0 0 0 .25-.26l2.31-8.5a.39.39 0 0 0-.08-.35zm-3.35 7.05c-.34-.14-.74-.28-1.2-.4l.01-.22c0-1.04-.2-1.57-.41-2.07l-.22-.63h.25a.39.39 0 0 0 .34-.56l-.77-1.54c-.13-.27-.56-.27-.69 0l-.77 1.54a.39.39 0 0 0 .34.56h.5c.08.36.2.64.3.91.19.46.36.9.36 1.79v.02a16.5 16.5 0 0 0-2.7-.37 4.74 4.74 0 0 0-.41-1.72c-.08-.2-.16-.4-.22-.63h.25a.39.39 0 0 0 .34-.56l-.77-1.54c-.13-.27-.56-.27-.7 0l-.76 1.54a.39.39 0 0 0 .34.56h.5c.08.36.2.64.3.91.16.39.3.78.34 1.41h-.37c-.85 0-1.62.05-2.32.13a4.78 4.78 0 0 0-.4-1.82c-.08-.2-.16-.4-.22-.63h.24a.39.39 0 0 0 .35-.56l-.77-1.54c-.13-.27-.56-.27-.7 0l-.77 1.54a.39.39 0 0 0 .35.56h.5c.08.36.19.64.3.91.17.44.33.86.35 1.66-1.14.2-2.05.47-2.73.75L9 12.1c.99-.8 3.4-2.3 7.57-2.3 4.2 0 6.6 1.5 7.58 2.3z"/>
</svg>
