<?xml version="1.0" encoding="UTF-8" standalone="no"?>
<!-- Created with Inkscape (http://www.inkscape.org/) -->

<svg
   xmlns:dc="http://purl.org/dc/elements/1.1/"
   xmlns:cc="http://creativecommons.org/ns#"
   xmlns:rdf="http://www.w3.org/1999/02/22-rdf-syntax-ns#"
   xmlns:svg="http://www.w3.org/2000/svg"
   xmlns="http://www.w3.org/2000/svg"
   xmlns:sodipodi="http://sodipodi.sourceforge.net/DTD/sodipodi-0.dtd"
   xmlns:inkscape="http://www.inkscape.org/namespaces/inkscape"
   width="120"
   height="120"
   viewBox="0 0 31.749999 31.750001"
   version="1.1"
   id="svg1041"
   sodipodi:docname="search.svg"
   inkscape:version="0.92.2 (5c3e80d, 2017-08-06)">
  <defs
     id="defs1035" />
  <sodipodi:namedview
     id="base"
     pagecolor="#ffffff"
     bordercolor="#666666"
     borderopacity="1.0"
     inkscape:pageopacity="0.0"
     inkscape:pageshadow="2"
     inkscape:zoom="5.12"
     inkscape:cx="90.592503"
     inkscape:cy="-51.887587"
     inkscape:document-units="px"
     inkscape:current-layer="text6285"
     showgrid="false"
     units="px"
     inkscape:snap-page="true"
     inkscape:window-width="1916"
     inkscape:window-height="1986"
     inkscape:window-x="-14"
     inkscape:window-y="0"
     inkscape:window-maximized="1"
     inkscape:snap-object-midpoints="true"
     inkscape:snap-nodes="true"
     inkscape:snap-center="true"
     inkscape:snap-others="true" />
  <metadata
     id="metadata1038">
    <rdf:RDF>
      <cc:Work
         rdf:about="">
        <dc:format>image/svg+xml</dc:format>
        <dc:type
           rdf:resource="http://purl.org/dc/dcmitype/StillImage" />
        <dc:title></dc:title>
      </cc:Work>
    </rdf:RDF>
  </metadata>
  <g
     inkscape:label="Layer 1"
     inkscape:groupmode="layer"
     id="layer1"
     transform="translate(0,-265.24998)">
    <g
       aria-label="AUTO"
       style="font-style:normal;font-variant:normal;font-weight:normal;font-stretch:normal;font-size:10.58333302px;line-height:1.25;font-family:'Yu Gothic UI';-inkscape-font-specification:'Yu Gothic UI';letter-spacing:0px;word-spacing:0px;fill:#000000;fill-opacity:1;stroke:none;stroke-width:0.26458332"
       id="text6285"
       transform="translate(-0.48059285,-0.475515)">
      <path
         inkscape:connector-curvature="0"
         style="fill:#ffffff;stroke-width:0.36080721"
         d="m 25.982518,290.04479 -4.891824,-5.08774 c 1.257775,-1.49519 1.946916,-3.37643 1.946916,-5.3349 0,-4.57575 -3.722808,-8.29856 -8.298566,-8.29856 -4.575756,0 -8.2985648,3.72281 -8.2985648,8.29856 0,4.57576 3.7228088,8.29857 8.2985648,8.29857 1.717804,0 3.354785,-0.51812 4.754357,-1.50168 l 4.928988,5.12635 c 0.20602,0.21396 0.483119,0.33194 0.780064,0.33194 0.281069,0 0.547705,-0.10716 0.750119,-0.30199 0.430081,-0.41385 0.443792,-1.1001 0.02994,-1.53055 z M 14.739044,273.48843 c 3.382207,0 6.133723,2.75152 6.133723,6.13372 0,3.38221 -2.751516,6.13372 -6.133723,6.13372 -3.382206,0 -6.1337216,-2.75151 -6.1337216,-6.13372 0,-3.3822 2.7515156,-6.13372 6.1337216,-6.13372 z"
         id="path2" />
      <g
         transform="matrix(0.3608072,0,0,0.3608072,6.0854448,271.32359)"
         id="g4"
         style="fill:#4d4d4d" />
      <g
         transform="matrix(0.3608072,0,0,0.3608072,6.0854448,271.32359)"
         id="g6"
         style="fill:#4d4d4d" />
      <g
         transform="matrix(0.3608072,0,0,0.3608072,6.0854448,271.32359)"
         id="g8"
         style="fill:#4d4d4d" />
      <g
         transform="matrix(0.3608072,0,0,0.3608072,6.0854448,271.32359)"
         id="g10"
         style="fill:#4d4d4d" />
      <g
         transform="matrix(0.3608072,0,0,0.3608072,6.0854448,271.32359)"
         id="g12"
         style="fill:#4d4d4d" />
      <g
         transform="matrix(0.3608072,0,0,0.3608072,6.0854448,271.32359)"
         id="g14"
         style="fill:#4d4d4d" />
      <g
         transform="matrix(0.3608072,0,0,0.3608072,6.0854448,271.32359)"
         id="g16"
         style="fill:#4d4d4d" />
      <g
         transform="matrix(0.3608072,0,0,0.3608072,6.0854448,271.32359)"
         id="g18"
         style="fill:#4d4d4d" />
      <g
         transform="matrix(0.3608072,0,0,0.3608072,6.0854448,271.32359)"
         id="g20"
         style="fill:#4d4d4d" />
      <g
         transform="matrix(0.3608072,0,0,0.3608072,6.0854448,271.32359)"
         id="g22"
         style="fill:#4d4d4d" />
      <g
         transform="matrix(0.3608072,0,0,0.3608072,6.0854448,271.32359)"
         id="g24"
         style="fill:#4d4d4d" />
      <g
         transform="matrix(0.3608072,0,0,0.3608072,6.0854448,271.32359)"
         id="g26"
         style="fill:#4d4d4d" />
      <g
         transform="matrix(0.3608072,0,0,0.3608072,6.0854448,271.32359)"
         id="g28"
         style="fill:#4d4d4d" />
      <g
         transform="matrix(0.3608072,0,0,0.3608072,6.0854448,271.32359)"
         id="g30"
         style="fill:#4d4d4d" />
      <g
         transform="matrix(0.3608072,0,0,0.3608072,6.0854448,271.32359)"
         id="g32"
         style="fill:#4d4d4d" />
    </g>
  </g>
</svg>
