<?xml-stylesheet type="text/css" href="../style.css" ?>
<svg xmlns="http://www.w3.org/2000/svg" width="120" height="120" viewBox="0 0 31.75 31.75" class="icon">
  <path d="M25.73 14.77c-.03-.28-.35-.49-.63-.49a2.2 2.2 0 0 1-2.06-1.35 2.21 2.21 0 0 1 .56-2.46c.21-.2.24-.52.06-.75-.47-.59-1-1.12-1.57-1.58a.55.55 0 0 0-.76.06c-.59.65-1.65.9-2.47.55a2.2 2.2 0 0 1-1.34-2.15.55.55 0 0 0-.49-.58 9.91 9.91 0 0 0-2.23 0 .55.55 0 0 0-.5.56 2.2 2.2 0 0 1-1.35 2.12 2.3 2.3 0 0 1-2.46-.56.55.55 0 0 0-.75-.06c-.6.46-1.13 1-1.6 1.58a.55.55 0 0 0 .06.76c.69.62.91 1.62.55 2.47a2.3 2.3 0 0 1-2.16 1.34.54.54 0 0 0-.57.5c-.09.74-.09 1.5 0 2.25.03.28.36.48.65.48.86-.02 1.69.52 2.04 1.36a2.2 2.2 0 0 1-.56 2.46.55.55 0 0 0-.06.75c.46.58 1 1.12 1.57 1.58.23.19.56.16.76-.06.6-.65 1.65-.9 2.47-.55a2.2 2.2 0 0 1 1.34 2.15c-.01.3.2.55.49.58a9.83 9.83 0 0 0 2.23 0c.29-.03.5-.27.5-.56a2.2 2.2 0 0 1 1.35-2.12 2.29 2.29 0 0 1 2.46.56c.2.21.52.24.75.06.6-.46 1.13-1 1.6-1.58a.55.55 0 0 0-.06-.76 2.2 2.2 0 0 1 1.48-3.82h.12c.28.03.55-.19.58-.48a9.9 9.9 0 0 0 0-2.26zm-9.86 6.83a5.72 5.72 0 1 1 4.92-2.8l-2.5-2.5a3.5 3.5 0 0 0-4.16-4.75.4.4 0 0 0-.28.28c-.03.13 0 .27.11.38l1.65 1.66c.05.04.05.14.04.18v.03c-.05.45-.13 1-.2 1.2 0 .02-.01.02-.02.03l-.03.03a7.8 7.8 0 0 1-1.23.2v-.01h-.02-.02a.26.26 0 0 1-.19-.08l-1.61-1.6a.4.4 0 0 0-.3-.13.4.4 0 0 0-.36.3 3.52 3.52 0 0 0 4.75 4.14l2.53 2.53a5.7 5.7 0 0 1-3.08.9z"/>
</svg>
